<?xml version="1.0" encoding="UTF-8"?><svg id="Capa_1" xmlns="http://www.w3.org/2000/svg" viewBox="0 0 797.36 246.21"><defs><style>.cls-1{fill:#262626;}</style></defs><path class="cls-1" d="M47.77,161.71l-3.96,40.81h-19.99L42.77,44.29h28.73l19.36,158.23h-20.82l-3.96-40.81h-18.32ZM56.93,64.9l-7.7,79.74h15.41l-7.7-79.74Z"/><path class="cls-1" d="M179.14,56.78v52.47l-12.49,12.49,12.49,12.49v55.8l-12.49,12.49h-46.22V44.29h46.22l12.49,12.49ZM159.15,109.66v-44.55l-4.16-4.16h-14.57v52.88h14.57l4.16-4.16ZM140.42,130.48v54.96h14.57l4.16-4.16v-46.64l-4.16-4.16h-14.57Z"/><path class="cls-1" d="M246.8,65.11l-4.16-4.16h-7.29l-4.16,4.16v44.55l4.16,4.16h19.57l12.49,12.49v63.71l-12.49,12.49h-31.65l-12.49-12.49v-33.1h19.99v24.78l4.16,4.16h8.33l4.16-4.16v-46.64l-4.16-4.16h-19.57l-12.49-12.49v-61.63l12.49-12.49h30.61l12.49,12.49v33.31h-19.99v-24.98Z"/><path class="cls-1" d="M333.21,60.94v141.58h-19.99V60.94h-18.95v-16.66h57.88v16.66h-18.95Z"/><path class="cls-1" d="M381.72,44.29h46.22l12.49,12.49v65.79l-11.03,11.03,12.49,68.91h-19.36l-12.28-67.46h-8.54v67.46h-19.99V44.29ZM420.44,114.66v-49.55l-4.16-4.16h-14.57v57.88h14.57l4.16-4.16Z"/><path class="cls-1" d="M494.35,161.71l-3.96,40.81h-19.99l18.95-158.23h28.73l19.36,158.23h-20.82l-3.96-40.81h-18.32ZM503.51,64.9l-7.7,79.74h15.41l-7.7-79.74Z"/><path class="cls-1" d="M587,164.84v37.68h-19.99V44.29h19.99v84.32l23.73-84.32h20.2l-21.65,70.16,22.9,88.07h-20.82l-14.57-64.75-9.79,27.07Z"/><path class="cls-1" d="M694.64,60.94v141.58h-19.99V60.94h-18.95v-16.66h57.88v16.66h-18.95Z"/><path class="cls-1" d="M743.15,44.29h19.99v158.23h-19.99V44.29Z"/></svg>